<svg width="106" height="60" fill="none" xmlns="http://www.w3.org/2000/svg"><path d="M36.4062 49.1014a.1357.1357 0 0 1 .0461.0092.1211.1211 0 0 1 .0384.024l.2182.2085c-.1694.1687-.3786.3037-.6135.3957a2.3903 2.3903 0 0 1-.8697.1421 2.3146 2.3146 0 0 1-.818-.1327c-.2339-.085-.444-.2126-.6162-.3743-.1757-.1677-.311-.3643-.398-.5781a1.9264 1.9264 0 0 1-.1391-.7416 1.7977 1.7977 0 0 1 .15-.7439c.0952-.2152.2389-.4117.4226-.5781.1862-.1631.4089-.2914.6543-.3767a2.5653 2.5653 0 0 1 .8425-.1327 2.2698 2.2698 0 0 1 .7825.1208c.2159.0814.4142.1944.5862.3341l-.1827.2227a.1784.1784 0 0 1-.0463.0403.1253.1253 0 0 1-.0736.0166.1777.1777 0 0 1-.0791-.0237l-.0982-.0593-.1363-.0758a1.5477 1.5477 0 0 0-.1827-.0734 1.886 1.886 0 0 0-.2481-.0592 1.8912 1.8912 0 0 0-.3244-.0237 1.7591 1.7591 0 0 0-.6053.0995c-.1791.0629-.3409.1582-.4744.2795-.136.1291-.2407.2806-.3081.4455a1.4992 1.4992 0 0 0-.1118.5875 1.5297 1.5297 0 0 0 .1118.5971c.0665.1634.1694.314.3026.443.1249.1203.2797.2143.4526.2749.178.0641.369.0963.5617.0947a2.3678 2.3678 0 0 0 .3326-.0189 1.316 1.316 0 0 0 .5044-.1588 1.6407 1.6407 0 0 0 .2154-.1469.1712.1712 0 0 1 .1036-.0379Z" fill="#AFB1B8"/><path d="M42.7043 48.0538a1.8092 1.8092 0 0 1-.1472.7368c-.0889.2137-.2288.4087-.4107.572-.1819.1634-.4015.2914-.6444.3756a2.6553 2.6553 0 0 1-1.6577 0c-.2414-.0855-.4596-.2138-.6407-.3767-.1818-.1663-.3228-.3629-.4145-.578-.1964-.4772-.1964-.9988 0-1.4759.0931-.2153.2339-.4125.4145-.5805.1826-.1577.4007-.2811.6407-.3624a2.6105 2.6105 0 0 1 1.6577 0c.2422.0855.4613.2137.6434.3767.1795.1646.3194.3587.4117.5709.101.2372.1509.4886.1472.7415Zm-.5725 0a1.5659 1.5659 0 0 0-.1036-.5923c-.0611-.1635-.1605-.3143-.2918-.443-.1278-.1217-.2852-.2172-.4607-.2795a1.9176 1.9176 0 0 0-1.2051 0c-.1756.0623-.333.1578-.4608.2795-.1331.1279-.2335.2789-.2944.443a1.737 1.737 0 0 0 0 1.1846c.0615.1639.1618.3148.2944.443.128.121.2854.2157.4608.2772a1.9653 1.9653 0 0 0 1.2051 0c.1753-.0615.3327-.1562.4607-.2772.1308-.129.23-.2797.2918-.443a1.554 1.554 0 0 0 .1036-.5923Z" fill="#AFB1B8"/><path d="m47.0013 48.6748.0572.1326c.0218-.0474.0409-.09.0627-.1326a1.2103 1.2103 0 0 1 .0709-.1303l1.3932-2.2006c.0273-.0379.0518-.0616.0791-.0687a.3733.3733 0 0 1 .1145-.0118h.4117v3.5792h-.488v-2.7431a.9364.9364 0 0 1 0-.1231l-1.4014 2.2313a.2032.2032 0 0 1-.0821.0815.2466.2466 0 0 1-.1197.0299h-.0791a.2444.2444 0 0 1-.12-.0295.2007.2007 0 0 1-.0817-.0819l-1.4423-2.2455v2.8733h-.4717v-3.5721h.4117a.3733.3733 0 0 1 .1145.0118.1538.1538 0 0 1 .0764.0687l1.4232 2.203a.7598.7598 0 0 1 .0709.1279Z" fill="#AFB1B8"/><path d="M52.2443 48.4969v1.3407h-.5453v-3.5744h1.216a2.604 2.604 0 0 1 .6789.0782c.1765.0435.3401.1194.4798.2227.1211.0968.2145.2168.2727.3505a1.078 1.078 0 0 1 .0927.4572 1.0247 1.0247 0 0 1-.1009.4572c-.0656.1371-.1663.2594-.2945.3576a1.3919 1.3919 0 0 1-.4825.2369 2.3066 2.3066 0 0 1-.6571.0829l-.6598-.0095Zm0-.3837h.6598c.1433.0016.286-.0168.4226-.0545a.9217.9217 0 0 0 .3053-.1539.6335.6335 0 0 0 .1854-.2369.686.686 0 0 0 .0655-.3008.6045.6045 0 0 0-.0547-.2912.6897.6897 0 0 0-.1907-.2442c-.2083-.1413-.4699-.2097-.7334-.1918h-.6598v1.4733Z" fill="#AFB1B8"/><path d="M59.573 49.8424h-.4308a.204.204 0 0 1-.1199-.0331.2228.2228 0 0 1-.0709-.0829l-.3708-.8647h-1.8622l-.3844.8647a.1966.1966 0 0 1-.0682.0805.2033.2033 0 0 1-.1227.0355h-.4308l1.6359-3.5795h.5671l1.6577 3.5795Zm-2.6992-1.329h1.5377l-.6489-1.4569a2.3661 2.3661 0 0 1-.1226-.3364l-.0628.1871a1.695 1.695 0 0 1-.0599.1517l-.6435 1.4545Z" fill="#AFB1B8"/><path d="M61.9287 46.2795a.2332.2332 0 0 1 .0818.064l2.3857 2.6983V46.263h.488v3.5795h-.2726a.2647.2647 0 0 1-.1118-.0213.2975.2975 0 0 1-.0873-.0664l-2.3829-2.6959a.974.974 0 0 1 0 .1232v2.6604h-.488V46.263h.289a.2583.2583 0 0 1 .0981.0165Z" fill="#AFB1B8"/><path d="M68.903 48.4189v1.4213h-.5453v-1.4213L66.85 46.2631h.488a.1967.1967 0 0 1 .1173.0308.314.314 0 0 1 .0736.0806l.9433 1.3905c.0382.0593.0709.1137.0982.1659a1.41 1.41 0 0 1 .0682.1516l.0708-.154a1.2553 1.2553 0 0 1 .0927-.1635l.9298-1.4a.3706.3706 0 0 1 .0709-.0758.1823.1823 0 0 1 .1172-.0356h.4935l-1.5105 2.1653Z" fill="#AFB1B8"/><path d="M46.7313 40.2561c.2372.0261.4772.0474.7198.0664 3.6789-1.4299 6.791-3.7702 8.9475-6.7283 2.1565-2.9582 3.2616-6.403 3.1772-9.9038l-4.0543-3.5226c.8243 3.7273.4387 7.5804-1.1137 11.1281-1.5524 3.5478-4.2103 6.6502-7.6765 8.9602Z" fill="#AFB1B8"/><path d="m45.2836 40.0923.1091.0189c3.7039-2.3018 6.5278-5.5161 8.1065-9.2273 1.5787-3.7112 1.8396-7.7486.7491-11.59l-5.7747-5.0172c2.3357 4.1241 3.2759 8.7395 2.7111 13.3095-.5647 4.57-2.611 8.9068-5.9011 12.5061Z" fill="#AFB1B8"/><path d="M64.8679 27.8266c-.9811 3.8466-3.3639 7.3157-6.7944 9.8923-1.0019.7567-2.0826 1.4308-3.2282 2.0136 2.7935-.7134 5.3611-1.9746 7.5049-3.6865 2.1437-1.7118 3.8064-3.8285 4.8597-6.1869l-2.342-2.0325Z" fill="#AFB1B8"/><path d="m63.949 27.2602-3.3344-2.8972c-.0638 3.3031-1.1446 6.5311-3.1301 9.3485-1.9855 2.8174-4.8032 5.1213-8.1603 6.6723h.0164a21.771 21.771 0 0 0 2.2384-.116c3.1374-1.1126 5.909-2.8828 8.0674-5.1525 2.1585-2.2697 3.6366-4.9683 4.3026-7.8551Z" fill="#AFB1B8"/><path d="M45.7662 12.161 41.7883 8.7c-3.5561 1.194-6.6146 3.2929-8.775 6.0221s-3.3222 5.9615-3.3333 9.2739c.0133 3.66 1.4312 7.2117 4.0292 10.0929 2.598 2.8811 6.2278 4.9271 10.3148 5.8142 3.6484-3.8621 5.7845-8.6343 6.0978-13.6233.3133-4.989-1.2124-9.9348-4.3556-14.1188Z" fill="#AFB1B8"/><path d="M73.14 26.7274c-.0144-4.3425-2.0062-8.5036-5.5404-11.5742-3.5341-3.0706-8.3233-4.8012-13.3213-4.8137-2.3096-.002-4.5995.3683-6.7535 1.0921l24.3556 21.1611c.8339-1.8706 1.261-3.8593 1.2596-5.8653Z" fill="#AFB1B8"/></svg>