<svg width="106" height="60" fill="none" xmlns="http://www.w3.org/2000/svg"><path d="M26.7569 44.7352c.2437.2761.3735.622.3667.9769a1.4305 1.4305 0 0 1-.1306.6763c-.0983.2137-.2479.4043-.4376.5578-.4734.3273-1.0598.4874-1.6517.4507H22v-6.1915h2.8442c.5615-.0342 1.1184.1112 1.5758.4114.1836.1407.3291.3186.4248.5197.0958.201.1392.4197.1268.6387.0167.3415-.1004.6773-.3303.9467-.2207.246-.5257.4166-.8655.484.3852.0643.7329.2519.9811.5293Zm-3.4058-.9346h1.2156c.2763.0187.5507-.0543.773-.2057a.7383.7383 0 0 0 .2076-.2746.6794.6794 0 0 0 .0534-.3303.7016.7016 0 0 0-.0546-.329.7593.7593 0 0 0-.2031-.276c-.2289-.1556-.5118-.2298-.7961-.2087h-1.1958v1.6243Zm2.1076 2.3743a.7753.7753 0 0 0 .2241-.2838.7114.7114 0 0 0 .0633-.3453.7229.7229 0 0 0-.0662-.349.7885.7885 0 0 0-.2278-.2862c-.2379-.1614-.5304-.2407-.8259-.2238h-1.2751v1.7029h1.2916c.2907.0153.5785-.0604.816-.2148Z" fill="#AFB1B8"/><path d="m32.5709 47.3969-1.5823-2.4197h-.5946v2.4197h-1.361v-6.1915h2.5766c.6495-.0415 1.2916.1469 1.7938.5263.3601.336.5774.7788.6125 1.2486.0351.4697-.1141.9354-.4209 1.3133-.3179.3335-.7522.5558-1.2289.6291l1.6847 2.4742h-1.4799Zm-2.1769-3.2636h1.1132c.773 0 1.1595-.3126 1.1595-.9377a.8513.8513 0 0 0-.0622-.3751.9161.9161 0 0 0-.2219-.3205c-.2443-.186-.5589-.2763-.8754-.2511h-1.1265l.0133 1.8844Z" fill="#AFB1B8"/><path d="M40.0102 46.1506h-2.7121l-.479 1.2461H35.392l2.4908-6.1219h1.5427l2.4808 6.1219h-1.427l-.4691-1.2461Zm-.3634-.9377-.991-2.6133-.991 2.6133h1.982Z" fill="#AFB1B8"/><path d="M49.3224 47.3968h-1.3511l-3.0292-4.2103v4.2103h-1.3478v-6.1915h1.3478l3.0292 4.2345v-4.2345h1.3511v6.1915Z" fill="#AFB1B8"/><path d="M57.0326 45.9148c-.2794.4675-.705.8477-1.2223 1.0919-.5881.272-1.2408.4061-1.8994.3902H51.506v-6.1915h2.4049c.6575-.0157 1.3093.1151 1.8994.3811.5172.2387.9433.6151 1.2223 1.0798.2781.5036.423 1.06.423 1.6243s-.1449 1.1206-.423 1.6242Zm-1.546-.1482c.3856-.4113.5976-.9355.5976-1.4775 0-.5421-.212-1.0663-.5976-1.4776-.4661-.3725-1.0739-.5617-1.6914-.5263h-.9381v4.0077h.9381c.6175.0354 1.2253-.1537 1.6914-.5263Z" fill="#AFB1B8"/><path d="M40.8558 6.7667s17.4387 6.0281 17.0687 14.7512v14.7543S40.4991 30.241 40.8624 21.5179l-.0066-14.7512Z" fill="#AFB1B8"/><path d="M73.4603 32.8179c3.2935-2.0752 7.103-3.3606 11.0796-3.7384v-4.6187c-4.582 1.617-8.469 4.5489-11.0796 8.3571Z" fill="#AFB1B8"/><path d="M71.4816 34.2094c2.6957-4.9699 7.3689-8.8049 13.0584-10.7164V10.1846s-24.835 8.587-24.3097 21.0092V52.2s1.1066-.3841 2.8475-1.104c0-.6714 0-1.349.0793-2.0295.514-5.767 3.5083-11.1111 8.3245-14.8571Z" fill="#AFB1B8"/><path d="M69.1197 42.013a20.0503 20.0503 0 0 1 .8688-4.3011c-2.9989 3.2351-4.8151 7.2494-5.1929 11.4786-.0364.3992-.0562.7985-.0661 1.2098 1.4105-.62 3.0523-1.3943 4.7767-2.3047a19.9433 19.9433 0 0 1-.3865-6.0826Z" fill="#AFB1B8"/><path d="M70.1075 42.0886a19.0514 19.0514 0 0 0 .3072 5.5079c6.7852-3.7173 14.4094-9.4611 14.1154-16.4027v-.6049c-4.8477.4966-9.3833 2.437-12.9097 5.523-.8256 1.9124-1.3355 3.9267-1.5129 5.9767Z" fill="#AFB1B8"/></svg>