<svg width="206" height="44" fill="none" xmlns="http://www.w3.org/2000/svg"><path d="M206 22c0 6.0751-2.462 11.5751-6.444 15.5563C195.575 41.5375 190.075 44 184 44c-6.075 0-11.575-2.4625-15.556-6.4437C164.462 33.5751 162 28.0751 162 22c0-6.0752 2.462-11.5752 6.444-15.5564C172.425 2.4624 177.925 0 184 0c6.075 0 11.575 2.4624 15.556 6.4436C203.538 10.4248 206 15.9248 206 22Z" fill="#fff"/><g clip-path="url(#clip0_1_473)" fill="#AFB1B8"><path d="M193.995 32v-.0008H194v-7.335c0-3.5883-.772-6.3525-4.968-6.3525-2.016 0-3.37 1.1067-3.922 2.1558h-.058v-1.8208h-3.978v13.3525h4.142v-6.6117c0-1.7408.33-3.4241 2.486-3.4241 2.124 0 2.155 1.9866 2.155 3.5358V32h4.138Z"/><path d="M174.33 18.6475h4.147V32h-4.147V18.6475Z"/><path d="M176.402 12c-1.326 0-2.402 1.0758-2.402 2.4017 0 1.3258 1.076 2.4241 2.402 2.4241 1.325 0 2.401-1.0983 2.401-2.4241-.001-1.3259-1.076-2.4017-2.401-2.4017Z"/></g><path d="M152 22c0 6.0751-2.462 11.5751-6.444 15.5563C141.575 41.5375 136.075 44 130 44c-6.075 0-11.575-2.4625-15.556-6.4437C110.462 33.5751 108 28.0751 108 22c0-6.0752 2.462-11.5752 6.444-15.5564C118.425 2.4624 123.925 0 130 0c6.075 0 11.575 2.4624 15.556 6.4436C149.538 10.4248 152 15.9248 152 22Z" fill="#fff"/><g clip-path="url(#clip1_1_473)" filter="url(#filter0_d_1_473)"><path d="M133.331 15.3208h1.826v-3.18c-.315-.0433-1.399-.1408-2.66-.1408-2.633 0-4.436 1.6558-4.436 4.6992V19.5h-2.905v3.555h2.905V32h3.561v-8.9442h2.788l.442-3.555h-3.23v-2.4491c0-1.0275.277-1.7309 1.709-1.7309Z" fill="#AFB1B8"/></g><path d="M98 22c0 6.0751-2.4624 11.5751-6.4436 15.5563C87.5751 41.5375 82.0751 44 76 44c-6.0751 0-11.5751-2.4625-15.5563-6.4437C56.4624 33.5751 54 28.0751 54 22c0-6.0752 2.4624-11.5752 6.4437-15.5564C64.4249 2.4624 69.9249 0 76 0c6.0751 0 11.5751 2.4624 15.5564 6.4436C95.5376 10.4248 98 15.9248 98 22Z" fill="#fff"/><g clip-path="url(#clip2_1_473)"><path d="M86 15.7988c-.7437.3262-1.5363.5424-2.3625.6474.85-.5074 1.4988-1.305 1.8037-2.2662-.7924.4725-1.6674.8063-2.6.9925-.7525-.8012-1.825-1.2975-2.995-1.2975-2.2699 0-4.0975 1.8425-4.0975 4.1013 0 .3249.0275.6374.0951.9349-3.4088-.1662-6.425-1.7999-8.4513-4.2887-.3538.6138-.5612 1.3163-.5612 2.0725 0 1.42.7312 2.6787 1.8212 3.4075-.6588-.0125-1.305-.2037-1.8525-.505v.045c0 1.9925 1.4212 3.6475 3.285 4.0287-.3338.0913-.6975.135-1.075.135-.2625 0-.5275-.0149-.7763-.07.5313 1.6238 2.0388 2.8176 3.8313 2.8563a8.238 8.238 0 0 1-5.0837 1.7487c-.3363 0-.6588-.0149-.9813-.0562 1.8162 1.1713 3.9688 1.84 6.29 1.84 7.545 0 11.67-6.25 11.67-11.6675 0-.1813-.0062-.3562-.015-.53.8138-.5775 1.4975-1.2987 2.055-2.1287Z" fill="#AFB1B8"/></g><path d="M44 22c0 6.0751-2.4624 11.5751-6.4436 15.5563C33.5751 41.5375 28.0751 44 22 44c-6.0751 0-11.5751-2.4625-15.5564-6.4437C2.4625 33.5751 0 28.0751 0 22c0-6.0752 2.4624-11.5752 6.4436-15.5564C10.425 2.4624 15.925 0 22 0c6.0751 0 11.5751 2.4624 15.5564 6.4436C41.5376 10.4248 44 15.9248 44 22Z" fill="#fff"/><g clip-path="url(#clip3_1_473)" fill="#AFB1B8"><path d="M31.9804 17.8801c-.0468-1.0627-.2187-1.7933-.4648-2.4264-.254-.6719-.6447-1.2736-1.1566-1.7737a4.9222 4.9222 0 0 0-1.7699-1.1526c-.6367-.2461-1.3635-.418-2.4261-.4648C25.0924 12.0118 24.7525 12 22.0371 12s-3.0553.0118-4.1219.0586c-1.0627.0469-1.7933.2189-2.4262.4649-.6721.2539-1.2737.6446-1.7738 1.1565a4.9235 4.9235 0 0 0-1.1526 1.7699c-.2462.6369-.418 1.3635-.4649 2.4262-.0508 1.0706-.0625 1.4105-.0625 4.1259 0 2.7153.0117 3.0552.0586 4.1219.0468 1.0626.2188 1.7932.465 2.4263a4.9316 4.9316 0 0 0 1.1564 1.7737 4.9222 4.9222 0 0 0 1.7699 1.1526c.6368.2461 1.3635.418 2.4263.4648 1.0665.047 1.4065.0586 4.1219.0586s3.0552-.0116 4.1219-.0586c1.0627-.0468 1.7932-.2187 2.4261-.4648a5.116 5.116 0 0 0 2.9265-2.9263c.246-.6369.418-1.3637.4649-2.4263.0468-1.0667.0586-1.4066.0586-4.1219 0-2.7154-.004-3.0553-.0509-4.1219Zm-1.801 8.1656c-.043.9768-.2071 1.5042-.3438 1.8558a3.318 3.318 0 0 1-1.8989 1.8989c-.3516.1368-.8829.3008-1.8558.3437-1.0549.047-1.3713.0586-4.0398.0586s-2.9889-.0116-4.04-.0586c-.9767-.0429-1.5042-.2069-1.8558-.3437-.4336-.1602-.8283-.4142-1.1486-.7463a3.1085 3.1085 0 0 1-.7463-1.1486c-.1367-.3516-.3008-.883-.3437-1.8558-.047-1.0549-.0586-1.3714-.0586-4.04 0-2.6685.0116-2.9888.0586-4.0398.0429-.9767.207-1.5042.3437-1.8558.1602-.4337.4142-.8282.7503-1.1487a3.1038 3.1038 0 0 1 1.1486-.7462c.3516-.1367.883-.3008 1.8558-.3438 1.0549-.0469 1.3714-.0586 4.0398-.0586 2.6725 0 2.9888.0117 4.0399.0586.9768.043 1.5042.2071 1.8559.3438.4335.1601.8282.4141 1.1486.7462.332.3243.586.715.7463 1.1487.1367.3516.3008.8829.3438 1.8558.0469 1.0549.0586 1.3713.0586 4.0398 0 2.6686-.0117 2.9811-.0586 4.036Z"/><path d="M22.0371 16.8642c-2.8364 0-5.1377 2.3012-5.1377 5.1377 0 2.8366 2.3013 5.1377 5.1377 5.1377 2.8366 0 5.1378-2.3011 5.1378-5.1377 0-2.8365-2.3012-5.1377-5.1378-5.1377Zm0 8.4704c-1.8401 0-3.3327-1.4924-3.3327-3.3327 0-1.8402 1.4926-3.3327 3.3327-3.3327 1.8403 0 3.3327 1.4925 3.3327 3.3327 0 1.8403-1.4924 3.3327-3.3327 3.3327Z"/><path d="M28.5775 16.6611c0 .6624-.5371 1.1994-1.1996 1.1994-.6624 0-1.1994-.537-1.1994-1.1994 0-.6625.537-1.1994 1.1994-1.1994.6625 0 1.1996.5369 1.1996 1.1994Z"/></g><defs><filter id="filter0_d_1_473" x="116" y="12" width="28" height="28" filterUnits="userSpaceOnUse" color-interpolation-filters="sRGB"><feFlood flood-opacity="0" result="BackgroundImageFix"/><feColorMatrix in="SourceAlpha" values="0 0 0 0 0 0 0 0 0 0 0 0 0 0 0 0 0 0 127 0" result="hardAlpha"/><feOffset dy="4"/><feGaussianBlur stdDeviation="2"/><feComposite in2="hardAlpha" operator="out"/><feColorMatrix values="0 0 0 0 0 0 0 0 0 0 0 0 0 0 0 0 0 0 0.25 0"/><feBlend in2="BackgroundImageFix" result="effect1_dropShadow_1_473"/><feBlend in="SourceGraphic" in2="effect1_dropShadow_1_473" result="shape"/></filter><clipPath id="clip0_1_473"><path fill="#fff" d="M174 12h20v20h-20z"/></clipPath><clipPath id="clip1_1_473"><path fill="#fff" d="M120 12h20v20h-20z"/></clipPath><clipPath id="clip2_1_473"><path fill="#fff" d="M66 12h20v20H66z"/></clipPath><clipPath id="clip3_1_473"><path fill="#fff" d="M12 12h20v20H12z"/></clipPath></defs></svg>